<mxfile host="app.diagrams.net" modified="2024-01-27T11:33:37.732Z" agent="Mozilla/5.0 (Windows NT 10.0; Win64; x64) AppleWebKit/537.36 (KHTML, like Gecko) Chrome/120.0.0.0 Safari/537.36" etag="9KZqwsN7_Y0IHYr5K-nv" version="23.0.0" type="github">
  <diagram id="C5RBs43oDa-KdzZeNtuy" name="Page-1">
    <mxGraphModel dx="1434" dy="738" grid="1" gridSize="10" guides="1" tooltips="1" connect="1" arrows="1" fold="1" page="1" pageScale="1" pageWidth="827" pageHeight="1169" math="0" shadow="0">
      <root>
        <mxCell id="WIyWlLk6GJQsqaUBKTNV-0" />
        <mxCell id="WIyWlLk6GJQsqaUBKTNV-1" parent="WIyWlLk6GJQsqaUBKTNV-0" />
        <mxCell id="TTgyMhuLDfY7JuYLriW0-38" style="edgeStyle=orthogonalEdgeStyle;rounded=0;orthogonalLoop=1;jettySize=auto;html=1;exitX=0;exitY=0.5;exitDx=0;exitDy=0;entryX=1;entryY=0.75;entryDx=0;entryDy=0;strokeColor=#009900;" edge="1" parent="WIyWlLk6GJQsqaUBKTNV-1" source="TTgyMhuLDfY7JuYLriW0-0" target="TTgyMhuLDfY7JuYLriW0-4">
          <mxGeometry relative="1" as="geometry">
            <Array as="points">
              <mxPoint x="100" y="510" />
              <mxPoint x="80" y="510" />
              <mxPoint x="80" y="40" />
              <mxPoint x="820" y="40" />
              <mxPoint x="820" y="360" />
            </Array>
          </mxGeometry>
        </mxCell>
        <mxCell id="TTgyMhuLDfY7JuYLriW0-0" value="Home" style="rounded=0;whiteSpace=wrap;html=1;" vertex="1" parent="WIyWlLk6GJQsqaUBKTNV-1">
          <mxGeometry x="100" y="494" width="120" height="60" as="geometry" />
        </mxCell>
        <mxCell id="TTgyMhuLDfY7JuYLriW0-1" style="edgeStyle=orthogonalEdgeStyle;rounded=0;orthogonalLoop=1;jettySize=auto;html=1;exitX=0.5;exitY=1;exitDx=0;exitDy=0;" edge="1" parent="WIyWlLk6GJQsqaUBKTNV-1" source="TTgyMhuLDfY7JuYLriW0-0" target="TTgyMhuLDfY7JuYLriW0-0">
          <mxGeometry relative="1" as="geometry" />
        </mxCell>
        <mxCell id="TTgyMhuLDfY7JuYLriW0-39" style="edgeStyle=orthogonalEdgeStyle;rounded=0;orthogonalLoop=1;jettySize=auto;html=1;exitX=1;exitY=0.5;exitDx=0;exitDy=0;strokeColor=#FF0000;" edge="1" parent="WIyWlLk6GJQsqaUBKTNV-1" source="TTgyMhuLDfY7JuYLriW0-4" target="TTgyMhuLDfY7JuYLriW0-0">
          <mxGeometry relative="1" as="geometry">
            <Array as="points">
              <mxPoint x="800" y="344" />
              <mxPoint x="800" y="30" />
              <mxPoint x="40" y="30" />
              <mxPoint x="40" y="524" />
            </Array>
          </mxGeometry>
        </mxCell>
        <mxCell id="TTgyMhuLDfY7JuYLriW0-40" style="edgeStyle=orthogonalEdgeStyle;rounded=0;orthogonalLoop=1;jettySize=auto;html=1;entryX=1;entryY=0.25;entryDx=0;entryDy=0;strokeColor=#009900;" edge="1" parent="WIyWlLk6GJQsqaUBKTNV-1" source="TTgyMhuLDfY7JuYLriW0-2" target="TTgyMhuLDfY7JuYLriW0-10">
          <mxGeometry relative="1" as="geometry">
            <Array as="points">
              <mxPoint x="790" y="524" />
              <mxPoint x="790" y="195" />
            </Array>
          </mxGeometry>
        </mxCell>
        <mxCell id="TTgyMhuLDfY7JuYLriW0-2" value="My Notes" style="rounded=0;whiteSpace=wrap;html=1;" vertex="1" parent="WIyWlLk6GJQsqaUBKTNV-1">
          <mxGeometry x="660" y="494" width="120" height="60" as="geometry" />
        </mxCell>
        <mxCell id="TTgyMhuLDfY7JuYLriW0-3" value="About" style="rounded=0;whiteSpace=wrap;html=1;" vertex="1" parent="WIyWlLk6GJQsqaUBKTNV-1">
          <mxGeometry x="380" y="324" width="120" height="60" as="geometry" />
        </mxCell>
        <mxCell id="TTgyMhuLDfY7JuYLriW0-4" value="&lt;h1 style=&quot;font-family: &amp;quot;Times New Roman&amp;quot;;&quot;&gt;&lt;font style=&quot;font-size: 14px; font-weight: normal;&quot;&gt;Impressum&lt;/font&gt;&lt;/h1&gt;" style="rounded=0;whiteSpace=wrap;html=1;align=center;" vertex="1" parent="WIyWlLk6GJQsqaUBKTNV-1">
          <mxGeometry x="600" y="314" width="120" height="60" as="geometry" />
        </mxCell>
        <mxCell id="TTgyMhuLDfY7JuYLriW0-7" value="Add Note" style="rounded=0;whiteSpace=wrap;html=1;" vertex="1" parent="WIyWlLk6GJQsqaUBKTNV-1">
          <mxGeometry x="390" y="684" width="120" height="60" as="geometry" />
        </mxCell>
        <mxCell id="TTgyMhuLDfY7JuYLriW0-8" value="Update Note" style="rounded=0;whiteSpace=wrap;html=1;" vertex="1" parent="WIyWlLk6GJQsqaUBKTNV-1">
          <mxGeometry x="560" y="694" width="120" height="60" as="geometry" />
        </mxCell>
        <mxCell id="TTgyMhuLDfY7JuYLriW0-9" value="Delete Note" style="rounded=0;whiteSpace=wrap;html=1;" vertex="1" parent="WIyWlLk6GJQsqaUBKTNV-1">
          <mxGeometry x="700" y="694" width="120" height="60" as="geometry" />
        </mxCell>
        <mxCell id="TTgyMhuLDfY7JuYLriW0-10" value="Login" style="rounded=0;whiteSpace=wrap;html=1;" vertex="1" parent="WIyWlLk6GJQsqaUBKTNV-1">
          <mxGeometry x="400" y="180" width="120" height="60" as="geometry" />
        </mxCell>
        <mxCell id="TTgyMhuLDfY7JuYLriW0-13" value="" style="endArrow=classic;html=1;rounded=0;entryX=0;entryY=0.367;entryDx=0;entryDy=0;exitX=0.108;exitY=0.017;exitDx=0;exitDy=0;exitPerimeter=0;entryPerimeter=0;strokeColor=#009900;" edge="1" parent="WIyWlLk6GJQsqaUBKTNV-1" source="TTgyMhuLDfY7JuYLriW0-0" target="TTgyMhuLDfY7JuYLriW0-10">
          <mxGeometry width="50" height="50" relative="1" as="geometry">
            <mxPoint x="80" y="354" as="sourcePoint" />
            <mxPoint x="130" y="304" as="targetPoint" />
          </mxGeometry>
        </mxCell>
        <mxCell id="TTgyMhuLDfY7JuYLriW0-16" value="" style="endArrow=classic;html=1;rounded=0;entryX=0;entryY=0.5;entryDx=0;entryDy=0;exitX=1;exitY=0.5;exitDx=0;exitDy=0;strokeColor=#FF0000;" edge="1" parent="WIyWlLk6GJQsqaUBKTNV-1" source="TTgyMhuLDfY7JuYLriW0-0" target="TTgyMhuLDfY7JuYLriW0-2">
          <mxGeometry width="50" height="50" relative="1" as="geometry">
            <mxPoint x="390" y="594" as="sourcePoint" />
            <mxPoint x="440" y="544" as="targetPoint" />
          </mxGeometry>
        </mxCell>
        <mxCell id="TTgyMhuLDfY7JuYLriW0-17" value="" style="endArrow=classic;html=1;rounded=0;entryX=0;entryY=0.5;entryDx=0;entryDy=0;exitX=1;exitY=0.75;exitDx=0;exitDy=0;strokeColor=#FF0000;" edge="1" parent="WIyWlLk6GJQsqaUBKTNV-1" source="TTgyMhuLDfY7JuYLriW0-0" target="TTgyMhuLDfY7JuYLriW0-7">
          <mxGeometry width="50" height="50" relative="1" as="geometry">
            <mxPoint x="390" y="594" as="sourcePoint" />
            <mxPoint x="440" y="544" as="targetPoint" />
          </mxGeometry>
        </mxCell>
        <mxCell id="TTgyMhuLDfY7JuYLriW0-18" value="" style="endArrow=classic;html=1;rounded=0;entryX=0.25;entryY=0;entryDx=0;entryDy=0;exitX=0.25;exitY=1;exitDx=0;exitDy=0;fontColor=#FF3333;strokeColor=#FF0000;" edge="1" parent="WIyWlLk6GJQsqaUBKTNV-1" source="TTgyMhuLDfY7JuYLriW0-2" target="TTgyMhuLDfY7JuYLriW0-8">
          <mxGeometry width="50" height="50" relative="1" as="geometry">
            <mxPoint x="390" y="594" as="sourcePoint" />
            <mxPoint x="440" y="544" as="targetPoint" />
          </mxGeometry>
        </mxCell>
        <mxCell id="TTgyMhuLDfY7JuYLriW0-19" value="" style="endArrow=classic;html=1;rounded=0;entryX=0.442;entryY=1;entryDx=0;entryDy=0;entryPerimeter=0;exitX=0.5;exitY=0;exitDx=0;exitDy=0;strokeColor=#FF0000;" edge="1" parent="WIyWlLk6GJQsqaUBKTNV-1" source="TTgyMhuLDfY7JuYLriW0-8" target="TTgyMhuLDfY7JuYLriW0-2">
          <mxGeometry width="50" height="50" relative="1" as="geometry">
            <mxPoint x="390" y="594" as="sourcePoint" />
            <mxPoint x="440" y="544" as="targetPoint" />
          </mxGeometry>
        </mxCell>
        <mxCell id="TTgyMhuLDfY7JuYLriW0-20" value="" style="endArrow=classic;html=1;rounded=0;entryX=0.75;entryY=1;entryDx=0;entryDy=0;exitX=0.75;exitY=0;exitDx=0;exitDy=0;strokeColor=#FF0000;" edge="1" parent="WIyWlLk6GJQsqaUBKTNV-1" source="TTgyMhuLDfY7JuYLriW0-9" target="TTgyMhuLDfY7JuYLriW0-2">
          <mxGeometry width="50" height="50" relative="1" as="geometry">
            <mxPoint x="390" y="594" as="sourcePoint" />
            <mxPoint x="440" y="544" as="targetPoint" />
          </mxGeometry>
        </mxCell>
        <mxCell id="TTgyMhuLDfY7JuYLriW0-21" value="" style="endArrow=classic;html=1;rounded=0;exitX=0.625;exitY=1.033;exitDx=0;exitDy=0;exitPerimeter=0;entryX=0.5;entryY=0;entryDx=0;entryDy=0;strokeColor=#FF0000;" edge="1" parent="WIyWlLk6GJQsqaUBKTNV-1" source="TTgyMhuLDfY7JuYLriW0-2" target="TTgyMhuLDfY7JuYLriW0-9">
          <mxGeometry width="50" height="50" relative="1" as="geometry">
            <mxPoint x="390" y="594" as="sourcePoint" />
            <mxPoint x="440" y="544" as="targetPoint" />
          </mxGeometry>
        </mxCell>
        <mxCell id="TTgyMhuLDfY7JuYLriW0-22" value="" style="endArrow=classic;html=1;rounded=0;entryX=0;entryY=1;entryDx=0;entryDy=0;exitX=1;exitY=0.75;exitDx=0;exitDy=0;strokeColor=#FF0000;" edge="1" parent="WIyWlLk6GJQsqaUBKTNV-1" source="TTgyMhuLDfY7JuYLriW0-7" target="TTgyMhuLDfY7JuYLriW0-2">
          <mxGeometry width="50" height="50" relative="1" as="geometry">
            <mxPoint x="390" y="594" as="sourcePoint" />
            <mxPoint x="440" y="544" as="targetPoint" />
          </mxGeometry>
        </mxCell>
        <mxCell id="TTgyMhuLDfY7JuYLriW0-23" value="" style="endArrow=classic;html=1;rounded=0;exitX=0;exitY=0.75;exitDx=0;exitDy=0;entryX=1;entryY=0.5;entryDx=0;entryDy=0;strokeColor=#FF0000;" edge="1" parent="WIyWlLk6GJQsqaUBKTNV-1" source="TTgyMhuLDfY7JuYLriW0-2" target="TTgyMhuLDfY7JuYLriW0-7">
          <mxGeometry width="50" height="50" relative="1" as="geometry">
            <mxPoint x="390" y="594" as="sourcePoint" />
            <mxPoint x="440" y="544" as="targetPoint" />
          </mxGeometry>
        </mxCell>
        <mxCell id="TTgyMhuLDfY7JuYLriW0-24" value="" style="endArrow=classic;html=1;rounded=0;exitX=0.5;exitY=0;exitDx=0;exitDy=0;entryX=0.5;entryY=1;entryDx=0;entryDy=0;strokeColor=#009900;" edge="1" parent="WIyWlLk6GJQsqaUBKTNV-1" source="TTgyMhuLDfY7JuYLriW0-3" target="TTgyMhuLDfY7JuYLriW0-10">
          <mxGeometry width="50" height="50" relative="1" as="geometry">
            <mxPoint x="490" y="304" as="sourcePoint" />
            <mxPoint x="540" y="254" as="targetPoint" />
          </mxGeometry>
        </mxCell>
        <mxCell id="TTgyMhuLDfY7JuYLriW0-25" value="" style="endArrow=classic;html=1;rounded=0;entryX=1;entryY=0.75;entryDx=0;entryDy=0;exitX=0;exitY=0.75;exitDx=0;exitDy=0;strokeColor=#009900;" edge="1" parent="WIyWlLk6GJQsqaUBKTNV-1" source="TTgyMhuLDfY7JuYLriW0-4" target="TTgyMhuLDfY7JuYLriW0-10">
          <mxGeometry width="50" height="50" relative="1" as="geometry">
            <mxPoint x="390" y="594" as="sourcePoint" />
            <mxPoint x="440" y="544" as="targetPoint" />
          </mxGeometry>
        </mxCell>
        <mxCell id="TTgyMhuLDfY7JuYLriW0-26" value="" style="endArrow=classic;html=1;rounded=0;exitX=0;exitY=0.75;exitDx=0;exitDy=0;entryX=0.5;entryY=0;entryDx=0;entryDy=0;strokeColor=#FF0000;" edge="1" parent="WIyWlLk6GJQsqaUBKTNV-1" source="TTgyMhuLDfY7JuYLriW0-10" target="TTgyMhuLDfY7JuYLriW0-0">
          <mxGeometry width="50" height="50" relative="1" as="geometry">
            <mxPoint x="390" y="594" as="sourcePoint" />
            <mxPoint x="440" y="544" as="targetPoint" />
          </mxGeometry>
        </mxCell>
        <mxCell id="TTgyMhuLDfY7JuYLriW0-27" value="" style="endArrow=classic;html=1;rounded=0;exitX=0;exitY=0.25;exitDx=0;exitDy=0;entryX=1;entryY=0.25;entryDx=0;entryDy=0;strokeColor=#FF0000;" edge="1" parent="WIyWlLk6GJQsqaUBKTNV-1" source="TTgyMhuLDfY7JuYLriW0-2" target="TTgyMhuLDfY7JuYLriW0-0">
          <mxGeometry width="50" height="50" relative="1" as="geometry">
            <mxPoint x="390" y="594" as="sourcePoint" />
            <mxPoint x="440" y="544" as="targetPoint" />
          </mxGeometry>
        </mxCell>
        <mxCell id="TTgyMhuLDfY7JuYLriW0-28" value="" style="endArrow=classic;html=1;rounded=0;exitX=0;exitY=0.75;exitDx=0;exitDy=0;entryX=0.25;entryY=1;entryDx=0;entryDy=0;strokeColor=#FF0000;" edge="1" parent="WIyWlLk6GJQsqaUBKTNV-1" source="TTgyMhuLDfY7JuYLriW0-7" target="TTgyMhuLDfY7JuYLriW0-0">
          <mxGeometry width="50" height="50" relative="1" as="geometry">
            <mxPoint x="390" y="594" as="sourcePoint" />
            <mxPoint x="440" y="544" as="targetPoint" />
          </mxGeometry>
        </mxCell>
        <mxCell id="TTgyMhuLDfY7JuYLriW0-29" value="" style="endArrow=classic;html=1;rounded=0;entryX=0.25;entryY=1;entryDx=0;entryDy=0;exitX=0.25;exitY=0;exitDx=0;exitDy=0;strokeColor=#009900;" edge="1" parent="WIyWlLk6GJQsqaUBKTNV-1" source="TTgyMhuLDfY7JuYLriW0-2" target="TTgyMhuLDfY7JuYLriW0-4">
          <mxGeometry width="50" height="50" relative="1" as="geometry">
            <mxPoint x="390" y="494" as="sourcePoint" />
            <mxPoint x="440" y="444" as="targetPoint" />
          </mxGeometry>
        </mxCell>
        <mxCell id="TTgyMhuLDfY7JuYLriW0-30" value="" style="endArrow=classic;html=1;rounded=0;entryX=0.7;entryY=-0.017;entryDx=0;entryDy=0;entryPerimeter=0;exitX=0.583;exitY=1;exitDx=0;exitDy=0;exitPerimeter=0;strokeColor=#FF0000;" edge="1" parent="WIyWlLk6GJQsqaUBKTNV-1" source="TTgyMhuLDfY7JuYLriW0-4" target="TTgyMhuLDfY7JuYLriW0-2">
          <mxGeometry width="50" height="50" relative="1" as="geometry">
            <mxPoint x="390" y="494" as="sourcePoint" />
            <mxPoint x="440" y="444" as="targetPoint" />
          </mxGeometry>
        </mxCell>
        <mxCell id="TTgyMhuLDfY7JuYLriW0-31" value="" style="endArrow=classic;html=1;rounded=0;entryX=0.4;entryY=1.017;entryDx=0;entryDy=0;entryPerimeter=0;exitX=0;exitY=0;exitDx=0;exitDy=0;strokeColor=#009900;" edge="1" parent="WIyWlLk6GJQsqaUBKTNV-1" source="TTgyMhuLDfY7JuYLriW0-2" target="TTgyMhuLDfY7JuYLriW0-3">
          <mxGeometry width="50" height="50" relative="1" as="geometry">
            <mxPoint x="390" y="494" as="sourcePoint" />
            <mxPoint x="440" y="444" as="targetPoint" />
          </mxGeometry>
        </mxCell>
        <mxCell id="TTgyMhuLDfY7JuYLriW0-32" value="" style="endArrow=classic;html=1;rounded=0;entryX=0.142;entryY=0;entryDx=0;entryDy=0;entryPerimeter=0;exitX=0.625;exitY=1.033;exitDx=0;exitDy=0;exitPerimeter=0;strokeColor=#FF0000;" edge="1" parent="WIyWlLk6GJQsqaUBKTNV-1" source="TTgyMhuLDfY7JuYLriW0-3" target="TTgyMhuLDfY7JuYLriW0-2">
          <mxGeometry width="50" height="50" relative="1" as="geometry">
            <mxPoint x="390" y="494" as="sourcePoint" />
            <mxPoint x="440" y="444" as="targetPoint" />
          </mxGeometry>
        </mxCell>
        <mxCell id="TTgyMhuLDfY7JuYLriW0-33" value="" style="endArrow=classic;html=1;rounded=0;entryX=-0.017;entryY=0.867;entryDx=0;entryDy=0;entryPerimeter=0;exitX=1;exitY=0.25;exitDx=0;exitDy=0;strokeColor=#009900;" edge="1" parent="WIyWlLk6GJQsqaUBKTNV-1" source="TTgyMhuLDfY7JuYLriW0-3" target="TTgyMhuLDfY7JuYLriW0-4">
          <mxGeometry width="50" height="50" relative="1" as="geometry">
            <mxPoint x="390" y="494" as="sourcePoint" />
            <mxPoint x="440" y="444" as="targetPoint" />
          </mxGeometry>
        </mxCell>
        <mxCell id="TTgyMhuLDfY7JuYLriW0-34" value="" style="endArrow=classic;html=1;rounded=0;exitX=0.058;exitY=1.033;exitDx=0;exitDy=0;exitPerimeter=0;entryX=1;entryY=0.75;entryDx=0;entryDy=0;strokeColor=#009900;" edge="1" parent="WIyWlLk6GJQsqaUBKTNV-1" source="TTgyMhuLDfY7JuYLriW0-4" target="TTgyMhuLDfY7JuYLriW0-3">
          <mxGeometry width="50" height="50" relative="1" as="geometry">
            <mxPoint x="390" y="494" as="sourcePoint" />
            <mxPoint x="440" y="444" as="targetPoint" />
          </mxGeometry>
        </mxCell>
        <mxCell id="TTgyMhuLDfY7JuYLriW0-35" value="" style="endArrow=classic;html=1;rounded=0;entryX=0;entryY=0.5;entryDx=0;entryDy=0;strokeColor=#009900;" edge="1" parent="WIyWlLk6GJQsqaUBKTNV-1" target="TTgyMhuLDfY7JuYLriW0-3">
          <mxGeometry width="50" height="50" relative="1" as="geometry">
            <mxPoint x="190" y="494" as="sourcePoint" />
            <mxPoint x="440" y="444" as="targetPoint" />
          </mxGeometry>
        </mxCell>
        <mxCell id="TTgyMhuLDfY7JuYLriW0-36" value="" style="endArrow=classic;html=1;rounded=0;entryX=1;entryY=0;entryDx=0;entryDy=0;exitX=0;exitY=1;exitDx=0;exitDy=0;strokeColor=#FF0000;" edge="1" parent="WIyWlLk6GJQsqaUBKTNV-1" source="TTgyMhuLDfY7JuYLriW0-3" target="TTgyMhuLDfY7JuYLriW0-0">
          <mxGeometry width="50" height="50" relative="1" as="geometry">
            <mxPoint x="390" y="494" as="sourcePoint" />
            <mxPoint x="440" y="444" as="targetPoint" />
          </mxGeometry>
        </mxCell>
        <mxCell id="TTgyMhuLDfY7JuYLriW0-41" value="" style="endArrow=classic;html=1;rounded=0;strokeColor=#009900;" edge="1" parent="WIyWlLk6GJQsqaUBKTNV-1">
          <mxGeometry width="50" height="50" relative="1" as="geometry">
            <mxPoint x="120" y="940" as="sourcePoint" />
            <mxPoint x="170" y="940" as="targetPoint" />
          </mxGeometry>
        </mxCell>
        <mxCell id="TTgyMhuLDfY7JuYLriW0-42" value="" style="endArrow=classic;html=1;rounded=0;strokeColor=#FF0000;" edge="1" parent="WIyWlLk6GJQsqaUBKTNV-1">
          <mxGeometry width="50" height="50" relative="1" as="geometry">
            <mxPoint x="120" y="980" as="sourcePoint" />
            <mxPoint x="170" y="980" as="targetPoint" />
          </mxGeometry>
        </mxCell>
        <mxCell id="TTgyMhuLDfY7JuYLriW0-43" value="non protégée" style="text;html=1;strokeColor=none;fillColor=none;align=center;verticalAlign=middle;whiteSpace=wrap;rounded=0;" vertex="1" parent="WIyWlLk6GJQsqaUBKTNV-1">
          <mxGeometry x="40" y="926" width="80" height="30" as="geometry" />
        </mxCell>
        <mxCell id="TTgyMhuLDfY7JuYLriW0-44" value="protégée" style="text;html=1;strokeColor=none;fillColor=none;align=center;verticalAlign=middle;whiteSpace=wrap;rounded=0;" vertex="1" parent="WIyWlLk6GJQsqaUBKTNV-1">
          <mxGeometry x="56" y="966" width="60" height="30" as="geometry" />
        </mxCell>
      </root>
    </mxGraphModel>
  </diagram>
</mxfile>
